<?xml version="1.0" encoding="utf-8"?>
<!-- Generator: Adobe Illustrator 19.0.0, SVG Export Plug-In . SVG Version: 6.00 Build 0)  -->
<svg version="1.1"
	 id="Layer_1" sodipodi:docname="nhl.svg" inkscape:version="0.92.2 (5c3e80d, 2017-08-06)" xmlns:sodipodi="http://sodipodi.sourceforge.net/DTD/sodipodi-0.dtd" xmlns:dc="http://purl.org/dc/elements/1.1/" xmlns:rdf="http://www.w3.org/1999/02/22-rdf-syntax-ns#" xmlns:cc="http://creativecommons.org/ns#" xmlns:inkscape="http://www.inkscape.org/namespaces/inkscape" xmlns:svg="http://www.w3.org/2000/svg"
	 xmlns="http://www.w3.org/2000/svg" xmlns:xlink="http://www.w3.org/1999/xlink" x="0px" y="0px" viewBox="-646.8 31.3 500 500"
	 style="enable-background:new -646.8 31.3 500 500;" xml:space="preserve">
<style type="text/css">
	.st0{fill:#FFFFFF;}
	.st1{fill:#E4E5E6;}
	.st2{fill:url(#path19_1_);}
	.st3{fill:url(#path30_1_);}
	.st4{fill:url(#path45_1_);}
	.st5{fill:url(#path68_1_);}
	.st6{fill:url(#path83_1_);}
	.st7{fill:url(#path98_1_);}
	.st8{fill:url(#path113_1_);}
	.st9{fill:url(#path128_1_);}
	.st10{fill:#111111;}
</style>
<sodipodi:namedview  id="namedview133" borderopacity="1" gridtolerance="10" bordercolor="#666666" inkscape:cx="92.585066" fit-margin-top="0" showgrid="false" objecttolerance="10" inkscape:cy="23.737569" inkscape:zoom="2.7660927" guidetolerance="10" pagecolor="#ffffff" fit-margin-left="0" inkscape:window-height="1017" inkscape:current-layer="Layer_1" fit-margin-bottom="0" inkscape:window-maximized="1" inkscape:pageopacity="0" inkscape:window-width="1920" inkscape:pageshadow="2" inkscape:window-y="-8" inkscape:window-x="-8" fit-margin-right="0">
	</sodipodi:namedview>
<path id="path6" inkscape:connector-curvature="0" class="st0" d="M-540.5,319.7c0-33.2,15.6-45.7,18.7-77.3
	c-4.3,27.7-22.6,50-22.6,77.3c0,10.5,1.6,19.9,3.9,28.5c11.3,38.3,45.7,59.3,78.5,67.9C-512.4,403.2-540.5,360.3-540.5,319.7z
	 M-249.6,319.7c0-17.2-4.7-30.8-9.8-43.3c-6.2-14.8-12.9-28.5-12.9-45.3c0,40.2,19.1,51.9,19.1,88.6c0,40.6-27.7,83.5-78.5,96.4
	C-285.9,404.4-249.6,370.8-249.6,319.7z"/>
<path id="path8" inkscape:connector-curvature="0" class="st1" d="M-266.4,158.9c-10.5-3.1-18-10.9-22.6-23.4l-10.1-28.9l-5.1,18.3
	c10.1,44.9,46.8,48,46.8,48l14.8-7L-266.4,158.9z M-440.5,322.4l-19.1-29.7l-21.5,16c0,0,7.4,0.4,7.4,8.2v55.8l15.2-11.3V322
	l17.2,26.5l16-12.1V267l-15.2,11.3V322.4z M-378.8,257.6l-17.2,12.9v-25.8l-23,17.2c0,0,7.4,0.4,7.4,8.2v55.8l15.6-11.7v-25.4
	l17.2-12.9v25.8l14.8-10.9v-69.9l-14.8,11.3V257.6z M-335.9,251.4v-51.9l-23,17.2c0,0,7.4,0.4,7.4,8.2v55.8l42.9-32.4
	c-0.8-10.9,0-17.6,0-17.6L-335.9,251.4z"/>
<linearGradient id="path19_1_" gradientUnits="userSpaceOnUse" x1="12292.1582" y1="-11185.2178" x2="12432.7695" y2="-11185.2178" gradientTransform="matrix(0.2752 0 0 -0.2752 -3936.9897 -2817.8069)">
	<stop  offset="0.11" style="stop-color:#FFFFFF"/>
	<stop  offset="0.24" style="stop-color:#DCDFE1"/>
	<stop  offset="0.44" style="stop-color:#A8AFB3"/>
	<stop  offset="0.54" style="stop-color:#949CA1"/>
</linearGradient>
<path id="path19" inkscape:connector-curvature="0" class="st2" d="M-531.9,231.1c0,39.4-19.5,47.2-19.5,88.6
	c0,12.5,2,24.6,5.9,35.1c1.2-2.3,3.1-5.1,5.1-6.6c-2.7-8.6-3.9-18-3.9-28.5c0-26.9,18.3-49.6,22.6-77.3c0.4-3.5,0.4-7.4,0.4-11.3
	c0.4-31.6-14.8-58.2-14.8-58.2l-14.8-7l10.1,23C-535.8,200.6-531.9,215.1-531.9,231.1z"/>
<linearGradient id="path30_1_" gradientUnits="userSpaceOnUse" x1="-257.2411" y1="288.6297" x2="-257.2411" y2="398.9104" gradientTransform="matrix(1 0 0 -1 0 565)">
	<stop  offset="0" style="stop-color:#FFFFFF"/>
	<stop  offset="0.35" style="stop-color:#FFFFFF"/>
	<stop  offset="0.56" style="stop-color:#949CA1"/>
	<stop  offset="1" style="stop-color:#949CA1"/>
</linearGradient>
<path id="path30" inkscape:connector-curvature="0" class="st3" d="M-272.3,231.1c0,16.8,6.6,30.1,12.9,45.3l8.2-0.4
	c-5.1-12.5-10.1-24.6-10.1-44.9c0-16,3.9-30.4,9-42.2l10.1-23l-15.2,7C-257.4,172.9-272.3,199.5-272.3,231.1z"/>
<linearGradient id="path45_1_" gradientUnits="userSpaceOnUse" x1="-545.1422" y1="162.5388" x2="-396.6048" y2="162.5388" gradientTransform="matrix(1 0 0 -1 0 565)">
	<stop  offset="0.15" style="stop-color:#FFFFFF"/>
	<stop  offset="0.21" style="stop-color:#FAFAFA"/>
	<stop  offset="0.29" style="stop-color:#EBECED"/>
	<stop  offset="0.37" style="stop-color:#D2D5D7"/>
	<stop  offset="0.45" style="stop-color:#AFB5B9"/>
	<stop  offset="0.51" style="stop-color:#949CA1"/>
</linearGradient>
<path id="path45" inkscape:connector-curvature="0" class="st4" d="M-408.5,428.2c-12.1-4.3-28.9-5.9-53.1-12.1
	c-33.2-8.2-67.1-29.7-78.5-67.9c-2,2-3.9,4.3-5.1,6.6c12.9,36.7,45.7,62.5,80.8,71.8c22.6,5.9,33.2,6.2,50,10.9
	c2.3,2.3,17.6,19.1,17.6,19.1v-16C-396.8,440.7-406.9,429.4-408.5,428.2z"/>
<linearGradient id="path68_1_" gradientUnits="userSpaceOnUse" x1="-308.6555" y1="170.234" x2="-484.7564" y2="421.6617" gradientTransform="matrix(1 0 0 -1 0 565)">
	<stop  offset="0" style="stop-color:#949CA1"/>
	<stop  offset="1.000000e-002" style="stop-color:#99A1A6"/>
	<stop  offset="0.12" style="stop-color:#C2C6C8"/>
	<stop  offset="0.2" style="stop-color:#DBDDDE"/>
	<stop  offset="0.25" style="stop-color:#E4E5E6"/>
	<stop  offset="0.75" style="stop-color:#E4E5E6"/>
	<stop  offset="0.8" style="stop-color:#DCDEDF"/>
	<stop  offset="0.87" style="stop-color:#C7CACD"/>
	<stop  offset="0.97" style="stop-color:#A3AAAE"/>
	<stop  offset="1" style="stop-color:#949CA1"/>
</linearGradient>
<path id="path68" inkscape:connector-curvature="0" class="st5" d="M-458.9,405.2c26.9,6.6,44.5,7.4,56.2,13.3c0,0,4.3,3.9,5.9,5.9
	c1.6-2,5.9-5.9,5.9-5.9c11.7-5.9,29.3-6.6,56.2-13.3c34-8.6,70.7-38.6,70.7-85.5c0-33.6-19.1-46.1-19.1-88.6
	c0-28.9,10.9-51.1,10.9-51.1s-25-5.1-36.7-36.7c0,0-16.8,15.6-39.8,15.6c-28.9,0-48-20.3-48-20.3s-19.1,20.3-48,20.3
	c-23,0-39.8-15.6-39.8-15.6c-11.7,31.6-36.7,36.7-36.7,36.7s10.9,22.3,10.9,51.1c0,42.6-19.1,55-19.1,88.6
	C-529.5,366.9-492.8,396.6-458.9,405.2z M-276.2,319.7c0,39.8-31.6,66-61.3,73.8c-21.5,5.5-47.2,8.2-55.4,12.9
	c-2,1.2-3.9,3.5-3.9,3.5s-2.3-2.3-3.9-3.5c-7.8-4.3-34-7.4-55.4-12.9c-0.8-0.4-1.6-0.4-2.3-0.8l167.9-126.1
	C-284.8,286.9-276.2,299.8-276.2,319.7z M-288.3,187c-3.5,10.1-7.4,26.2-7.4,44.1c0,7.4,0.4,14.4,1.6,20.3l-180,135.1
	c-22.6-11.7-42.2-34-43.3-64.4l206.9-155.4C-303.1,176.8-294.9,183.1-288.3,187z M-497.9,231.1c0-18.3-3.9-34-7.4-44.1
	c7.8-4.3,18-12.1,25.8-25.4c8.6,4.7,20.7,9.8,34.7,9.8c21.5,0,38.3-9.4,48-16.4c9.8,7,26.5,16.4,48,16.4c3.5,0,6.6-0.4,9.8-0.8
	l-176.1,131.9C-510,282.6-497.9,266.2-497.9,231.1z"/>
<linearGradient id="path83_1_" gradientUnits="userSpaceOnUse" x1="-494.1203" y1="437.7527" x2="-396.7219" y2="437.7527" gradientTransform="matrix(1 0 0 -1 0 565)">
	<stop  offset="0.25" style="stop-color:#FFFFFF"/>
	<stop  offset="0.34" style="stop-color:#FAFAFA"/>
	<stop  offset="0.45" style="stop-color:#EBECED"/>
	<stop  offset="0.57" style="stop-color:#D2D5D7"/>
	<stop  offset="0.7" style="stop-color:#AFB5B9"/>
	<stop  offset="0.79" style="stop-color:#949CA1"/>
</linearGradient>
<path id="path83" inkscape:connector-curvature="0" class="st6" d="M-444.8,147.9c28.9,0,48-24.6,48-24.6v-15.6l-15.2,14.8
	c-7.8,7.8-20.3,14.1-32.8,14.1c-9.4,0-18.3-4.3-25.8-10.5l-23.4-19.5l5.1,18.3C-489.3,124.9-467.1,147.9-444.8,147.9z"/>
<linearGradient id="path98_1_" gradientUnits="userSpaceOnUse" x1="-396.8" y1="198.6484" x2="-242.2117" y2="198.6484" gradientTransform="matrix(1 0 0 -1 0 565)">
	<stop  offset="0.2" style="stop-color:#FFFFFF"/>
	<stop  offset="0.33" style="stop-color:#FAFBFB"/>
	<stop  offset="0.47" style="stop-color:#EDEEEF"/>
	<stop  offset="0.63" style="stop-color:#D7DADC"/>
	<stop  offset="0.79" style="stop-color:#B8BDC1"/>
	<stop  offset="0.93" style="stop-color:#949CA1"/>
</linearGradient>
<path id="path98" inkscape:connector-curvature="0" class="st7" d="M-249.6,319.7c0,51.1-36.3,84.7-82.4,96.4
	c-24.2,6.2-41,7.8-53.1,12.1c-1.6,1.6-11.7,12.5-11.7,12.5v16c0,0,15.6-16.8,17.6-19.1c16.8-4.7,27.3-5.1,50-10.9
	c45.7-11.7,87.1-51.5,87.1-107c0-19.9-4.3-32-9-43.7l-8.2,0.4C-254.3,288.9-249.6,302.5-249.6,319.7z"/>
<linearGradient id="path113_1_" gradientUnits="userSpaceOnUse" x1="-396.7219" y1="437.7527" x2="-299.3235" y2="437.7527" gradientTransform="matrix(1 0 0 -1 0 565)">
	<stop  offset="0.25" style="stop-color:#FFFFFF"/>
	<stop  offset="0.34" style="stop-color:#FAFAFA"/>
	<stop  offset="0.45" style="stop-color:#EBECED"/>
	<stop  offset="0.57" style="stop-color:#D2D5D7"/>
	<stop  offset="0.7" style="stop-color:#AFB5B9"/>
	<stop  offset="0.79" style="stop-color:#949CA1"/>
</linearGradient>
<path id="path113" inkscape:connector-curvature="0" class="st8" d="M-348.8,147.9c22.3,0,44.5-22.6,44.5-22.6l5.1-18.7l-23.4,19.5
	c-7.8,6.2-16.4,10.5-25.8,10.5c-12.5,0-25-6.2-32.8-14.1l-15.2-14.8V123C-396.8,123.3-377.7,147.9-348.8,147.9z"/>
<linearGradient id="path128_1_" gradientUnits="userSpaceOnUse" x1="-551.115" y1="425.2607" x2="-489.2016" y2="425.2607" gradientTransform="matrix(1 0 0 -1 0 565)">
	<stop  offset="0.39" style="stop-color:#FFFFFF"/>
	<stop  offset="0.47" style="stop-color:#FAFAFA"/>
	<stop  offset="0.57" style="stop-color:#EBECED"/>
	<stop  offset="0.67" style="stop-color:#D2D5D7"/>
	<stop  offset="0.79" style="stop-color:#AFB5B9"/>
	<stop  offset="0.87" style="stop-color:#949CA1"/>
</linearGradient>
<path id="path128" inkscape:connector-curvature="0" class="st9" d="M-489.3,124.9l-4.7-18.3l-10.5,28.9
	c-4.7,12.5-12.1,20.3-22.6,23.4l-23.8,7l14.8,7C-536.2,172.9-499.1,169.8-489.3,124.9z"/>
<path id="path130" inkscape:connector-curvature="0" sodipodi:nodetypes="ccscsccscccccccsccsscccccssccccccsscssccccccsccccscccsccccccscccccccccscccccscccccccccscccccccccccccscccccccccccscccscccccssccscsccccccscsccsscccccscc" class="st10" d="
	M-515.1,302.5L-339,170.2c-3.1,0.4-6.6,0.8-9.8,0.8c-21.5,0-38.3-9.4-48-16.4c-9.8,7-26.5,16.4-48,16.4c-14.1,0-26.2-4.7-34.7-9.8
	c-7.8,13.3-18,21.1-25.8,25.4c3.5,10.1,7.4,26.2,7.4,44.1C-497.9,266.2-510,282.6-515.1,302.5z M-458.5,392.7
	c0.8,0.4,1.6,0.4,2.3,0.8c21.5,5.5,47.2,8.2,55.4,12.9c2,1.2,3.9,3.5,3.9,3.5s2.3-2.3,3.9-3.5c7.8-4.3,34-7.4,55.4-12.9
	c29.7-7.4,61.3-33.6,61.3-73.8c0-19.9-8.6-32.8-14.4-53.1L-458.5,392.7z M-536.6,231.1c0,37.9-19.5,46.5-19.5,88.6
	c0,60.5,46.8,100.3,90.6,111.6c21.9,5.5,28.5,5.9,48.4,10.5c1.6,1.6,20.3,21.9,20.3,21.9s18.7-19.9,20.3-21.9
	c19.9-5.1,26.5-5.1,48.4-10.5c43.7-11.3,90.6-51.1,90.6-111.6c0-42.2-19.5-50.7-19.5-88.6c0-13.7,2.7-27.3,8.6-40.2l12.5-28.1
	l-28.9-8.2c-9-2.7-15.2-9.4-19.5-20.3l-12.9-35.1l-28.9,23.8c-7.4,6.2-15.2,9.4-23,9.4c-10.1,0-21.9-5.1-29.3-12.5l-18.3-18.3
	l-18.3,18.3c-7.8,7.8-19.1,12.5-29.3,12.5c-7.4,0-15.2-3.1-23-9.4l-28.9-24.2l-12.9,35.1c-3.9,10.9-10.5,18-19.5,20.3l-28.9,9
	l12.5,28.1C-539.7,203.8-536.6,217.4-536.6,231.1z M-527.2,158.9c10.5-3.1,18-10.9,22.6-23.4l10.5-28.9l23.4,19.5
	c7.8,6.2,16.4,10.5,25.8,10.5c12.5,0,25-6.2,32.8-14.1l15.2-14.8l15.2,14.8c7.8,7.8,20.3,14.1,32.8,14.1c9.4,0,18.3-4.3,25.8-10.5
	l23.4-19.5l10.5,28.9c4.7,12.5,12.1,20.3,22.6,23.4l23.8,7l-10.1,23c-5.1,11.7-9,25.8-9,42.2c0,20.3,5.1,32.4,10.1,44.9
	c4.7,11.7,9,23.8,9,43.7c0.4,55.4-41,95.3-86.7,107c-22.6,5.9-33.2,6.2-50,10.9c-2.3,2.3-17.6,19.1-17.6,19.1s-15.6-16.8-17.6-19.1
	c-16.8-4.7-27.3-5.1-50-10.9c-35.1-9-67.9-34.7-80.8-71.8c-3.9-10.9-5.9-22.6-5.9-35.1c-0.4-41.4,19.1-49.2,19.1-88.6
	c0-16-3.9-30.4-9-42.2l-10.1-23L-527.2,158.9z M-474.1,386.5l180-135.1c-0.8-6.2-1.6-12.9-1.6-20.3c0-18.3,3.9-34,7.4-44.1
	c-6.6-3.9-15.2-9.8-22.3-19.9l-206.9,155.4C-516.3,352.9-496.3,375.1-474.1,386.5z M-335.9,199.5V251l27.3-20.7c0,0-0.8,6.6,0,17.6
	l-42.9,32.4v-55c0-7.8-7.4-8.2-7.4-8.2L-335.9,199.5z M-396,244.8v25.8l17.2-12.9v-25.8l14.8-11.3V290l-14.8,11.7v-25.4l-17.2,12.9
	v25.4l-15.6,11.7v-55.8c0-7.8-7.4-8.2-7.4-8.2L-396,244.8z M-459.7,292.8l19.1,29.7v-44.1l15.2-11.3v69.5l-16,12.1l-17.2-26.5v39.4
	l-15.2,11.3V317c0-7.8-7.4-8.2-7.4-8.2L-459.7,292.8z M-521.7,242.4c-3.1,31.6-18.7,44.1-18.7,77.3c0,40.6,28.1,83.5,78.9,96.4
	c24.2,6.2,41,7.8,53.1,12.1c1.6,1.6,11.7,12.5,11.7,12.5s10.1-10.9,11.7-12.5c12.1-4.3,28.9-5.9,53.1-12.1
	c51.1-12.9,78.9-55.8,78.9-96.4c0-37.1-19.1-48.4-19.1-88.6c0-31.6,14.8-58.2,14.8-58.2s-37.1-3.1-46.8-48c0,0-22.3,22.6-44.5,22.6
	c-28.9,0-48-24.6-48-24.6s-19.1,24.6-48,24.6c-22.3,0-44.5-22.6-44.5-22.6c-9.8,44.9-46.8,48-46.8,48s14.8,26.5,14.8,58.2
	C-520.9,235.4-521.3,238.9-521.7,242.4z M-520.9,179.9c0,0,25-5.1,36.7-36.7c0,0,16.8,15.6,39.8,15.6c28.9,0,48-20.3,48-20.3
	s19.1,20.3,48,20.3c23,0,39.8-15.6,39.8-15.6c11.7,31.6,36.7,36.7,36.7,36.7s-10.9,22.3-10.9,51.1c0,42.6,19.1,55,19.1,88.6
	c0,46.8-36.7,76.9-70.7,85.5c-26.9,6.6-44.5,7.4-56.2,13.3c0,0-4.3,3.9-5.9,5.9c-1.6-2-5.9-5.9-5.9-5.9
	c-11.7-5.9-29.3-6.6-56.2-13.3c-34-8.6-70.7-38.6-70.7-85.5c0-33.6,19.1-46.1,19.1-88.6C-510.4,202.2-520.9,179.9-520.9,179.9z"/>
</svg>
